<?xml version="1.0" encoding="UTF-8"?>
<!-- Generated by Pixelmator Pro 4.4 -->
<svg viewBox="0 0 2400 1350" xmlns="http://www.w3.org/2000/svg">
    <path id="background" fill="#f0f3f8" stroke="none" d="M 0 0 L 2400 0 L 2400 1350 L 0 1350 Z"/>
    <g id="reference-grid">
        <path id="Path" fill="none" stroke="#d3dae6" stroke-linecap="round" stroke-linejoin="round" d="M 90 0 L 90 1350"/>
        <path id="path1" fill="none" stroke="#d3dae6" stroke-linecap="round" stroke-linejoin="round" d="M 180 0 L 180 1350"/>
        <path id="path2" fill="none" stroke="#d3dae6" stroke-linecap="round" stroke-linejoin="round" d="M 270 0 L 270 1350"/>
        <path id="path3" fill="none" stroke="#d3dae6" stroke-linecap="round" stroke-linejoin="round" d="M 360 0 L 360 1350"/>
        <path id="path4" fill="none" stroke="#d3dae6" stroke-linecap="round" stroke-linejoin="round" d="M 450 0 L 450 1350"/>
        <path id="path5" fill="none" stroke="#d3dae6" stroke-linecap="round" stroke-linejoin="round" d="M 540 0 L 540 1350"/>
        <path id="path6" fill="none" stroke="#d3dae6" stroke-linecap="round" stroke-linejoin="round" d="M 630 0 L 630 1350"/>
        <path id="path7" fill="none" stroke="#d3dae6" stroke-linecap="round" stroke-linejoin="round" d="M 720 0 L 720 1350"/>
        <path id="path8" fill="none" stroke="#d3dae6" stroke-linecap="round" stroke-linejoin="round" d="M 810 0 L 810 1350"/>
        <path id="path9" fill="none" stroke="#d3dae6" stroke-linecap="round" stroke-linejoin="round" d="M 900 0 L 900 1350"/>
        <path id="path10" fill="none" stroke="#d3dae6" stroke-linecap="round" stroke-linejoin="round" d="M 990 0 L 990 1350"/>
        <path id="path11" fill="none" stroke="#d3dae6" stroke-linecap="round" stroke-linejoin="round" d="M 1080 0 L 1080 1350"/>
        <path id="path12" fill="none" stroke="#d3dae6" stroke-linecap="round" stroke-linejoin="round" d="M 1170 0 L 1170 1350"/>
        <path id="path13" fill="none" stroke="#d3dae6" stroke-linecap="round" stroke-linejoin="round" d="M 1260 0 L 1260 1350"/>
        <path id="path14" fill="none" stroke="#d3dae6" stroke-linecap="round" stroke-linejoin="round" d="M 1350 0 L 1350 1350"/>
        <path id="path15" fill="none" stroke="#d3dae6" stroke-linecap="round" stroke-linejoin="round" d="M 1440 0 L 1440 1350"/>
        <path id="path16" fill="none" stroke="#d3dae6" stroke-linecap="round" stroke-linejoin="round" d="M 1530 0 L 1530 1350"/>
        <path id="path17" fill="none" stroke="#d3dae6" stroke-linecap="round" stroke-linejoin="round" d="M 1620 0 L 1620 1350"/>
        <path id="path18" fill="none" stroke="#d3dae6" stroke-linecap="round" stroke-linejoin="round" d="M 1710 0 L 1710 1350"/>
        <path id="path19" fill="none" stroke="#d3dae6" stroke-linecap="round" stroke-linejoin="round" d="M 1800 0 L 1800 1350"/>
        <path id="path20" fill="none" stroke="#d3dae6" stroke-linecap="round" stroke-linejoin="round" d="M 1890 0 L 1890 1350"/>
        <path id="path21" fill="none" stroke="#d3dae6" stroke-linecap="round" stroke-linejoin="round" d="M 1980 0 L 1980 1350"/>
        <path id="path22" fill="none" stroke="#d3dae6" stroke-linecap="round" stroke-linejoin="round" d="M 2070 0 L 2070 1350"/>
        <path id="path23" fill="none" stroke="#d3dae6" stroke-linecap="round" stroke-linejoin="round" d="M 2160 0 L 2160 1350"/>
        <path id="path24" fill="none" stroke="#d3dae6" stroke-linecap="round" stroke-linejoin="round" d="M 2250 0 L 2250 1350"/>
        <path id="path25" fill="none" stroke="#d3dae6" stroke-linecap="round" stroke-linejoin="round" d="M 2340 0 L 2340 1350"/>
        <path id="path26" fill="none" stroke="#d3dae6" stroke-linecap="round" stroke-linejoin="round" d="M 0 90 L 2400 90"/>
        <path id="path27" fill="none" stroke="#d3dae6" stroke-linecap="round" stroke-linejoin="round" d="M 0 180 L 2400 180"/>
        <path id="path28" fill="none" stroke="#d3dae6" stroke-linecap="round" stroke-linejoin="round" d="M 0 270 L 2400 270"/>
        <path id="path29" fill="none" stroke="#d3dae6" stroke-linecap="round" stroke-linejoin="round" d="M 0 360 L 2400 360"/>
        <path id="path30" fill="none" stroke="#d3dae6" stroke-linecap="round" stroke-linejoin="round" d="M 0 450 L 2400 450"/>
        <path id="path31" fill="none" stroke="#d3dae6" stroke-linecap="round" stroke-linejoin="round" d="M 0 540 L 2400 540"/>
        <path id="path32" fill="none" stroke="#d3dae6" stroke-linecap="round" stroke-linejoin="round" d="M 0 630 L 2400 630"/>
        <path id="path33" fill="none" stroke="#d3dae6" stroke-linecap="round" stroke-linejoin="round" d="M 0 720 L 2400 720"/>
        <path id="path34" fill="none" stroke="#d3dae6" stroke-linecap="round" stroke-linejoin="round" d="M 0 810 L 2400 810"/>
        <path id="path35" fill="none" stroke="#d3dae6" stroke-linecap="round" stroke-linejoin="round" d="M 0 900 L 2400 900"/>
        <path id="path36" fill="none" stroke="#d3dae6" stroke-linecap="round" stroke-linejoin="round" d="M 0 990 L 2400 990"/>
        <path id="path37" fill="none" stroke="#d3dae6" stroke-linecap="round" stroke-linejoin="round" d="M 0 1080 L 2400 1080"/>
        <path id="path38" fill="none" stroke="#d3dae6" stroke-linecap="round" stroke-linejoin="round" d="M 0 1170 L 2400 1170"/>
        <path id="path39" fill="none" stroke="#d3dae6" stroke-linecap="round" stroke-linejoin="round" d="M 0 1260 L 2400 1260"/>
    </g>
    <g id="light-cluster-watermark" opacity="0.42">
        <path id="path40" fill="none" stroke="#c9d0db" stroke-width="4" stroke-linecap="round" stroke-linejoin="round" d="M -80 950 C 320 160 1010 95 1765 515 C 2120 712 2470 630 2580 400"/>
        <path id="path41" fill="none" stroke="#c9d0db" stroke-width="4" stroke-linecap="round" stroke-linejoin="round" d="M -160 1180 C 500 325 1050 275 1770 790 C 2160 1060 2520 1070 2600 970"/>
        <path id="path42" fill="none" stroke="#c9d0db" stroke-width="4" stroke-linecap="round" stroke-linejoin="round" d="M 210 1360 C 420 630 1040 370 1520 870 C 1700 1050 1840 1290 2210 1450"/>
    </g>
    <g id="heading">
        <path id="path43" fill="#fec514" stroke="none" d="M 86 55 L 424 55 C 426.209137 55 428 56.790894 428 59 L 428 60 C 428 62.209106 426.209137 64 424 64 L 86 64 C 83.790863 64 82 62.209106 82 60 L 82 59 C 82 56.790894 83.790863 55 86 55 Z"/>
        <text id="JEV--STRUCTURED-OUTPUT" xml:space="preserve" x="83" y="113" font-family="Space Mono" font-size="25" font-weight="700" fill="#0b64dd" letter-spacing="3">JEV / STRUCTURED-OUTPUT</text>
        <text id="The-awkward-decision-job" xml:space="preserve" x="83" y="210" font-family="Inter" font-size="86" font-weight="700" fill="#1c1e23" letter-spacing="-2">The awkward decision job</text>
        <text id="A-program-needs-an" xml:space="preserve" x="85" y="270" font-family="Inter" font-size="38" fill="#5a6068">A program needs an answer it can use</text>
    </g>
    <g id="presenter-placeholder">
        <path id="path44" fill="#48efcf" stroke="none" opacity="0.52" d="M 1686 595 L 2301 595 C 2320.882324 595 2337 611.117798 2337 631 L 2337 1246 C 2337 1265.882202 2320.882324 1282 2301 1282 L 1686 1282 C 1666.117798 1282 1650 1265.882202 1650 1246 L 1650 631 C 1650 611.117798 1666.117798 595 1686 595 Z"/>
        <path id="path45" fill="#ffffff" stroke="#0b64dd" stroke-width="4" d="M 1715 630 L 2327 630 C 2346.330078 630 2362 645.670044 2362 665 L 2362 1277 C 2362 1296.329956 2346.330078 1312 2327 1312 L 1715 1312 C 1695.670044 1312 1680 1296.329956 1680 1277 L 1680 665 C 1680 645.670044 1695.670044 630 1715 630 Z"/>
        <path id="path46" fill="#48efcf" stroke="#ffffff" stroke-width="7" d="M 1740 672 C 1740 678.075195 1735.075073 683 1729 683 C 1722.924927 683 1718 678.075195 1718 672 C 1718 665.924805 1722.924927 661 1729 661 C 1735.075073 661 1740 665.924805 1740 672 Z"/>
        <path id="path47" fill="#d3dae6" stroke="#ffffff" stroke-width="7" d="M 1772 672 C 1772 678.075195 1767.075073 683 1761 683 C 1754.924927 683 1750 678.075195 1750 672 C 1750 665.924805 1754.924927 661 1761 661 C 1767.075073 661 1772 665.924805 1772 672 Z"/>
        <path id="path48" fill="#d3dae6" stroke="#ffffff" stroke-width="7" d="M 1804 672 C 1804 678.075195 1799.075073 683 1793 683 C 1786.924927 683 1782 678.075195 1782 672 C 1782 665.924805 1786.924927 661 1793 661 C 1799.075073 661 1804 665.924805 1804 672 Z"/>
    </g>
    <g id="visual-content">
        <text id="Will-this-parse" xml:space="preserve" x="154" y="591" font-family="Inter" font-size="64" font-weight="700" fill="#1c1e23">Will this parse?</text>
        <path id="path49" fill="#ffffff" stroke="#ff957d" stroke-width="4" d="M 137 645 L 1435 645 C 1449.359375 645 1461 656.640625 1461 671 L 1461 867 C 1461 881.359375 1449.359375 893 1435 893 L 137 893 C 122.640594 893 111 881.359375 111 867 L 111 671 C 111 656.640625 122.640594 645 137 645 Z"/>
        <text id="-route--" xml:space="preserve" x="154" y="726" font-family="Space Mono" font-size="57" font-weight="700" fill="#0b64dd">{ "route": ... }</text>
        <path id="path50" fill="none" stroke="#d3dae6" stroke-width="3" stroke-linecap="round" stroke-linejoin="round" d="M 152 763 L 1411 763"/>
        <text id="The-next-branch-needs" xml:space="preserve" x="154" y="843" font-family="Inter" font-size="48" font-weight="500" fill="#5a6068">The next branch needs a predictable value.</text>
        <path id="path51" fill="#ffffff" stroke="#ff957d" stroke-width="3" d="M 129 979 L 384 979 C 393.941132 979 402 987.058899 402 997 L 402 1019 C 402 1028.941162 393.941132 1037 384 1037 L 129 1037 C 119.058876 1037 111 1028.941162 111 1019 L 111 997 C 111 987.058899 119.058876 979 129 979 Z"/>
        <text id="YES--NO-" xml:space="preserve" x="135" y="1021" font-family="Space Mono" font-size="36" font-weight="700" fill="#1c1e23">YES / NO ?</text>
        <path id="path52" fill="#ffffff" stroke="#ff957d" stroke-width="3" d="M 445 979 L 666 979 C 675.941101 979 684 987.058899 684 997 L 684 1019 C 684 1028.941162 675.941101 1037 666 1037 L 445 1037 C 435.058868 1037 427 1028.941162 427 1019 L 427 997 C 427 987.058899 435.058868 979 445 979 Z"/>
        <text id="CHOICE-" xml:space="preserve" x="451" y="1021" font-family="Space Mono" font-size="36" font-weight="700" fill="#1c1e23">CHOICE ?</text>
        <path id="path53" fill="#ffffff" stroke="#ff957d" stroke-width="3" d="M 727 979 L 931 979 C 940.941101 979 949 987.058899 949 997 L 949 1019 C 949 1028.941162 940.941101 1037 931 1037 L 727 1037 C 717.058899 1037 709 1028.941162 709 1019 L 709 997 C 709 987.058899 717.058899 979 727 979 Z"/>
        <text id="SCORE-" xml:space="preserve" x="733" y="1021" font-family="Space Mono" font-size="36" font-weight="700" fill="#1c1e23">SCORE ?</text>
    </g>
</svg>
